<svg width="49" height="68" viewBox="0 0 49 68" fill="none" xmlns="http://www.w3.org/2000/svg">
<g clip-path="url(#clip0_2129_865)">
<path d="M29.3983 43.3751H19.3457V54.8624H29.3983V43.3751Z" fill="#D5C6DF"/>
<path d="M11.7719 30.4929C11.7719 33.6126 9.2491 36.1354 6.12934 36.1354C3.00958 36.1354 0.486816 33.6126 0.486816 30.4929C0.486816 27.3731 3.00958 24.8503 6.12934 24.8503C9.2491 24.8503 11.7719 27.3731 11.7719 30.4929Z" fill="#D5C6DF"/>
<path d="M48.2631 30.4929C48.2631 33.6126 45.7403 36.1354 42.6206 36.1354C39.5008 36.1354 36.978 33.6126 36.978 30.4929C36.978 27.3731 39.5008 24.8503 42.6206 24.8503C45.7403 24.8503 48.2631 27.3731 48.2631 30.4929Z" fill="#D5C6DF"/>
<path d="M43.3575 31.0121C43.3575 41.4883 34.8648 45.4651 24.3789 45.4651C13.8931 45.4651 5.40039 41.498 5.40039 31.0121C5.40039 20.5263 13.9027 12.0432 24.3789 12.0432C34.8552 12.0432 43.3575 20.5359 43.3575 31.0217V31.0121Z" fill="#FAFAFA"/>
<path d="M45.5852 59.2344C40.0486 64.2992 32.6536 67.3997 24.5557 67.3997C16.4578 67.3997 8.84138 64.2029 3.27588 59.0129C6.15492 53.5052 12.1152 49.3552 19.3561 48.0168C20.9738 47.7086 22.6492 47.5546 24.3824 47.5546C26.1156 47.5546 27.791 47.7086 29.4087 48.0168C36.7459 49.3552 42.7543 53.6111 45.5852 59.2344Z" fill="#FAFAFA"/>
<path d="M38.4817 33.6321C38.4817 39.5539 32.1651 40.9404 24.3754 40.9404C16.5856 40.9404 10.269 39.1976 10.269 33.6321C10.269 27.0941 16.5856 21.7886 24.3754 21.7886C32.1651 21.7886 38.4817 27.0845 38.4817 33.6321Z" fill="#D5C6DF"/>
<path d="M19.5047 30.4917C19.5047 31.4546 18.7248 32.2346 17.7619 32.2346C16.799 32.2346 16.019 31.4546 16.019 30.4917C16.019 29.5288 16.799 28.7489 17.7619 28.7489C18.7248 28.7489 19.5047 29.5288 19.5047 30.4917Z" fill="#6F3797"/>
<path d="M32.7322 30.4917C32.7322 31.4546 31.9523 32.2346 30.9894 32.2346C30.0265 32.2346 29.2466 31.4546 29.2466 30.4917C29.2466 29.5288 30.0265 28.7489 30.9894 28.7489C31.9523 28.7489 32.7322 29.5288 32.7322 30.4917Z" fill="#6F3797"/>
<path d="M25.4288 13.2282H24.0326V9.26107C24.0326 5.99688 21.375 3.3393 18.1108 3.3393V1.94312C22.1453 1.94312 25.4192 5.22657 25.4192 9.25144V13.2185L25.4288 13.2282Z" fill="#FAFAFA"/>
<path d="M20.5426 2.63606C20.5426 3.9841 19.4546 5.07217 18.1065 5.07217C16.7585 5.07217 15.6704 3.9841 15.6704 2.63606C15.6704 1.28802 16.7585 0.199951 18.1065 0.199951C19.4546 0.199951 20.5426 1.28802 20.5426 2.63606Z" fill="#6F3797"/>
<g clip-path="url(#clip1_2129_865)">
<path d="M17.4724 48.6883C14.8479 50.2365 14.7207 56.2208 14.7791 58.0921H14.0874C14.0874 58.0921 14.1428 54.4996 14.9976 51.6238C15.7282 49.163 17.2373 48.0452 17.8152 48.4035L17.4724 48.6883Z" fill="#6F3797"/>
<path d="M14.9211 56.5837C14.8986 56.9696 14.8762 57.357 14.8552 57.7429C14.4884 57.7659 14.2384 57.8333 13.8701 57.8562C13.933 57.3953 13.9914 56.9436 14.0528 56.4857C14.3432 56.5087 14.6321 56.5408 14.9211 56.5822V56.5837Z" fill="#D5C6DF"/>
<path style="mix-blend-mode:multiply" opacity="0.3" d="M14.6712 57.1014C14.7505 57.0677 14.8254 57.0218 14.8957 56.9697C14.8808 57.2285 14.8658 57.4858 14.8508 57.7446C14.484 57.7675 14.234 57.8349 13.8657 57.8579C13.8912 57.6726 13.9151 57.4904 13.9391 57.3066C13.978 57.2959 14.0169 57.2836 14.0559 57.2745C14.2625 57.2224 14.4735 57.1856 14.6697 57.1014H14.6712Z" fill="#C0DEF2"/>
<path style="mix-blend-mode:multiply" opacity="0.3" d="M16.9395 61.1631C17.4723 59.8318 16.849 58.3107 15.5474 57.7658C14.2457 57.2208 12.7587 57.8583 12.2259 59.1897C11.6931 60.5211 12.3164 62.0421 13.618 62.5871C14.9196 63.132 16.4067 62.4945 16.9395 61.1631Z" fill="#8F8E8E"/>
<path d="M15.0407 62.4022C16.3447 62.085 17.1503 60.7466 16.8401 59.4129C16.5299 58.0792 15.2215 57.2552 13.9176 57.5724C12.6137 57.8897 11.8081 59.228 12.1182 60.5617C12.4284 61.8954 13.7368 62.7194 15.0407 62.4022Z" fill="#FAFAFA"/>
<path style="mix-blend-mode:multiply" opacity="0.3" d="M14.9805 62.1531C16.1501 61.8687 16.8729 60.6684 16.5949 59.472C16.3169 58.2757 15.1434 57.5364 13.9738 57.8207C12.8041 58.1051 12.0813 59.3054 12.3593 60.5018C12.6373 61.6981 13.8108 62.4374 14.9805 62.1531Z" fill="#C0DEF2"/>
<path d="M12.8076 59.9866C12.8076 59.0433 13.5577 58.2761 14.4799 58.2761C15.4021 58.2761 16.1522 59.0433 16.1522 59.9866C16.1522 60.9299 15.4021 61.6971 14.4799 61.6971C13.5577 61.6971 12.8076 60.9299 12.8076 59.9866ZM13.1579 59.9866C13.1579 60.7308 13.7508 61.3372 14.4784 61.3372C15.206 61.3372 15.7988 60.7308 15.7988 59.9866C15.7988 59.2424 15.206 58.636 14.4784 58.636C13.7508 58.636 13.1579 59.2424 13.1579 59.9866Z" fill="#6F3797"/>
<g style="mix-blend-mode:multiply" opacity="0.3">
<path d="M13.9521 59.9871C13.9521 60.2827 14.1872 60.5231 14.4761 60.5231C14.7651 60.5231 15.0001 60.2827 15.0001 59.9871C15.0001 59.6916 14.7651 59.4512 14.4761 59.4512C14.1872 59.4512 13.9521 59.6916 13.9521 59.9871Z" fill="#6F3797"/>
</g>
</g>
<g clip-path="url(#clip2_2129_865)">
<path style="mix-blend-mode:multiply" opacity="0.3" d="M29.1539 62.8931C29.1313 61.5639 29.183 59.0334 29.7774 56.9304L29.6499 56.935C29.9904 55.7213 30.5095 54.6432 31.2951 54.0047C31.7091 53.6685 32.1793 53.4657 32.6958 53.3964C32.5262 52.0304 32.3696 50.4609 31.1482 48.9021C29.7281 47.0915 28.2599 46.9643 28.2599 46.9643L27.7545 46.7465C31.5498 46.6465 33.2885 51.0286 33.2146 53.3723C33.7402 53.3959 34.207 53.5632 34.6072 53.8737C35.3523 54.4525 35.7975 55.4928 36.0567 56.6828L35.9293 56.6874C36.3816 58.7499 36.2613 61.2826 36.1467 62.6177C36.0881 63.2972 35.3338 63.8636 34.4539 63.8985C34.4382 63.8992 34.4245 63.8997 34.4088 63.9004L34.338 63.9015C33.9757 64.1009 33.2272 64.188 33.2428 63.7501C33.2581 63.3107 34.0086 63.3366 34.3557 63.5074L34.4364 63.5064C35.0662 63.5007 35.5952 63.0983 35.6351 62.6231C35.7248 61.5609 35.8842 58.843 35.4062 56.7091L35.2729 56.7145C34.8954 55.1303 34.3063 54.512 34.0409 54.3048C33.7223 54.0565 33.3657 53.9445 32.9541 53.9609C32.5407 53.9775 32.178 54.1181 31.8398 54.3907C31.2203 54.8926 30.7675 55.7966 30.4455 56.9031L30.3044 56.9081C29.6791 59.0861 29.6529 61.7986 29.6709 62.856C29.6782 63.3305 30.1878 63.6905 30.8123 63.6472L30.8924 63.6419C31.2527 63.4428 32.0074 63.3577 31.9921 63.7971C31.9765 64.235 31.2333 64.2051 30.8843 64.0346L30.812 64.0389C30.7965 64.041 30.7807 64.0403 30.7669 64.0408C29.887 64.0756 29.1672 63.5654 29.1554 62.8899L29.1539 62.8931Z" fill="#D1D1D1"/>
<path d="M34.5115 63.5391C34.5186 63.2237 33.2394 62.983 33.2235 63.5873C33.2076 64.1916 34.5044 63.8545 34.5115 63.5391Z" fill="#9F9D9D"/>
<path d="M30.6846 63.6685C30.6917 63.3531 31.9878 63.0254 31.9719 63.6297C31.956 64.234 30.6756 63.9841 30.6846 63.6685Z" fill="#9F9D9D"/>
<path d="M30.7431 63.8756C30.7587 63.8749 30.7744 63.8743 30.7882 63.874L31.0893 63.857C31.2321 63.8495 31.3463 63.7502 31.344 63.6358C31.3422 63.5244 31.2316 63.4377 31.0924 63.4431C31.0905 63.4434 31.0866 63.4439 31.0847 63.4442L30.7836 63.4612C30.1586 63.5015 29.6459 63.119 29.635 62.619C29.5967 60.9518 29.6282 55.3777 31.651 53.653C32.0119 53.3447 32.4059 53.1889 32.8569 53.1729C33.306 53.1572 33.6948 53.2883 34.0399 53.5716C35.979 55.1614 35.7279 60.7442 35.6035 62.4169C35.5671 62.9172 35.0405 63.3368 34.4102 63.3386L34.1091 63.3414C34.1091 63.3414 34.1052 63.342 34.1013 63.3425C33.9622 63.3478 33.8469 63.4394 33.839 63.5522C33.8333 63.6661 33.9427 63.7577 34.0844 63.7567L34.3856 63.7539C34.4012 63.7533 34.415 63.7529 34.4307 63.7523C35.3134 63.723 36.064 63.1306 36.1157 62.416C36.2772 60.2193 36.4371 54.9291 34.4158 53.2722C33.9752 52.9126 33.4543 52.7387 32.8658 52.7582C32.2774 52.7777 31.7449 52.9859 31.2872 53.377C29.182 55.1745 29.071 60.4626 29.1232 62.6514C29.14 63.3627 29.8623 63.9046 30.745 63.8753L30.7431 63.8756Z" fill="#D5C6DF"/>
<path d="M31.247 53.6637C31.663 53.3417 32.1342 53.1459 32.6508 53.0778C32.4917 51.7868 32.4149 50.2528 31.2088 48.7881C29.8032 47.0819 28.2699 47.0243 28.2699 47.0243L27.7661 46.8184C31.5584 46.6965 33.2625 50.831 33.1713 53.0515C33.6961 53.0697 34.1612 53.2247 34.5587 53.516C35.2987 54.0585 35.7357 55.0398 35.9857 56.1644L35.2004 56.1996C34.8352 54.7032 34.2512 54.1205 33.9876 53.9275C33.6714 53.6953 33.3159 53.5913 32.9046 53.6094C32.4913 53.6277 32.128 53.7632 31.7883 54.0252C31.1658 54.506 30.7067 55.3645 30.3768 56.415L29.5836 56.4499C29.9327 55.2979 30.4593 54.2734 31.2489 53.6634L31.247 53.6637Z" fill="#6F3797"/>
</g>
<path d="M22.9955 53.308L22.3494 51.6051H22.3388C22.3424 51.641 22.3454 51.6849 22.3481 51.7367C22.3507 51.7884 22.3529 51.845 22.3546 51.9064C22.3564 51.967 22.3573 52.0288 22.3573 52.092V53.308H22.1493V51.384H22.481L23.0903 52.9842H23.0995L23.718 51.384H24.047V53.308H23.8259V52.0762C23.8259 52.0192 23.8268 51.9621 23.8286 51.9051C23.8303 51.8472 23.8325 51.7928 23.8351 51.7419C23.8378 51.6902 23.8404 51.6454 23.843 51.6077H23.8325L23.1785 53.308H22.9955ZM24.8129 51.8656V53.308H24.5944V51.8656H24.8129ZM24.7063 51.3261C24.7423 51.3261 24.773 51.3379 24.7984 51.3616C24.8247 51.3844 24.8379 51.4204 24.8379 51.4695C24.8379 51.5178 24.8247 51.5537 24.7984 51.5774C24.773 51.6011 24.7423 51.613 24.7063 51.613C24.6686 51.613 24.637 51.6011 24.6115 51.5774C24.587 51.5537 24.5747 51.5178 24.5747 51.4695C24.5747 51.4204 24.587 51.3844 24.6115 51.3616C24.637 51.3379 24.6686 51.3261 24.7063 51.3261ZM25.5498 53.308H25.33V51.2603H25.5498V53.308ZM27.3092 52.5842C27.3092 52.7026 27.2939 52.8083 27.2632 52.9013C27.2325 52.9943 27.1882 53.0729 27.1303 53.1369C27.0724 53.2009 27.0022 53.2501 26.9197 53.2843C26.8381 53.3176 26.7456 53.3343 26.642 53.3343C26.5455 53.3343 26.4569 53.3176 26.3762 53.2843C26.2964 53.2501 26.227 53.2009 26.1683 53.1369C26.1104 53.0729 26.0652 52.9943 26.0327 52.9013C26.0011 52.8083 25.9853 52.7026 25.9853 52.5842C25.9853 52.4263 26.0121 52.292 26.0656 52.1815C26.1191 52.0701 26.1955 51.9854 26.2946 51.9275C26.3946 51.8687 26.5135 51.8393 26.6512 51.8393C26.7828 51.8393 26.8978 51.8687 26.996 51.9275C27.0952 51.9863 27.1719 52.0714 27.2263 52.1828C27.2816 52.2933 27.3092 52.4271 27.3092 52.5842ZM26.2117 52.5842C26.2117 52.7 26.227 52.8004 26.2578 52.8855C26.2885 52.9706 26.3358 53.0364 26.3999 53.0829C26.4639 53.1294 26.5464 53.1527 26.6473 53.1527C26.7473 53.1527 26.8293 53.1294 26.8934 53.0829C26.9583 53.0364 27.0061 52.9706 27.0368 52.8855C27.0675 52.8004 27.0829 52.7 27.0829 52.5842C27.0829 52.4692 27.0675 52.3701 27.0368 52.2868C27.0061 52.2025 26.9587 52.1376 26.8947 52.092C26.8307 52.0464 26.7477 52.0236 26.646 52.0236C26.4959 52.0236 26.3858 52.0731 26.3157 52.1723C26.2463 52.2714 26.2117 52.4087 26.2117 52.5842Z" fill="#6F3797"/>
</g>
<defs>
<clipPath id="clip0_2129_865">
<rect width="47.7785" height="67.2" fill="white" transform="translate(0.486816 0.199951)"/>
</clipPath>
<clipPath id="clip1_2129_865">
<rect width="5.77733" height="14.4433" fill="white" transform="translate(12.0405 48.3462)"/>
</clipPath>
<clipPath id="clip2_2129_865">
<rect width="9.25075" height="17.2626" fill="white" transform="translate(26.3882 48.9246) rotate(-7.96987)"/>
</clipPath>
</defs>
</svg>
