<svg width="892" height="185" viewBox="0 0 892 185" fill="none" xmlns="http://www.w3.org/2000/svg">
<g clip-path="url(#clip0_69_1854)">
<path d="M861.86 127.97C863.17 125.84 865.06 124.64 867.53 124.4C869.99 124.16 872.62 124.65 875.41 125.88C878.21 127.11 880.91 128.92 883.54 131.3C886.17 133.68 888.22 136.44 889.7 139.55C891.51 143.33 892.08 146.9 891.43 150.27C890.77 153.64 889.54 156.88 887.73 160C885.26 164.11 882.14 167.76 878.37 170.96C874.59 174.17 870.4 176.84 865.8 178.97C861.2 181.11 856.35 182.54 851.26 183.28C846.16 184.02 841.07 183.98 835.98 183.16C829.73 182.01 824.11 179.75 819.1 176.38C814.09 173.02 809.74 168.91 806.04 164.06C802.35 159.22 799.34 153.92 797.05 148.16C794.75 142.41 793.1 136.42 792.12 130.17C791.3 123.76 790.93 117.27 791.01 110.7C791.09 104.13 791.22 97.2301 791.38 90.0001C789.24 88.8501 787.52 86.6401 786.21 83.3501C784.89 80.0601 784.07 76.4901 783.74 72.6301C783.41 68.7701 783.49 64.9901 783.99 61.3001C784.48 57.6001 785.47 54.8501 786.95 53.0401C787.77 51.7301 788.84 50.9101 790.15 50.5701C790.81 50.4101 791.3 50.3301 791.63 50.3301H793.48C793.89 50.3301 794.34 50.2501 794.84 50.0801C795.83 39.2401 796.6 30.4101 797.18 23.5901C797.75 16.7801 798.04 12.9601 798.04 12.1301C798.04 9.66009 798.86 7.61009 800.5 5.97009C802.14 4.33009 804.12 3.10009 806.42 2.28009C808.72 1.46009 811.14 0.970092 813.69 0.800092C816.24 0.640092 818.5 0.720092 820.47 1.05009C825.56 1.71009 830.45 3.47009 835.13 6.35009C839.81 9.23009 842.65 13.4601 843.63 19.0401C843.96 22.0001 844.04 25.9401 843.87 30.8701C843.71 35.8001 843.38 41.3801 842.88 47.6201C855.2 46.9601 867.52 45.7301 879.84 43.9301C882.14 43.1101 883.95 43.5601 885.26 45.2801C886.58 47.0101 887.48 49.4301 887.97 52.5501C888.46 55.6701 888.63 59.2001 888.46 63.1401C888.3 67.0801 887.8 70.9001 886.98 74.6001C886.16 78.3001 885.13 81.5801 883.9 84.4601C882.67 87.3401 881.31 89.1801 879.83 90.0001C876.71 91.8101 873.51 93.0801 870.22 93.8201C866.93 94.5601 863.52 95.0101 860 95.1701C856.46 95.3301 852.89 95.2901 849.28 95.0501C845.67 94.8101 842.05 94.5201 838.44 94.1901C838.11 97.1501 837.78 100.23 837.45 103.43C837.12 106.63 836.92 109.92 836.84 113.29C836.75 116.66 836.96 120.03 837.45 123.39C837.94 126.76 838.85 130.01 840.16 133.12C842.29 138.05 845.46 139.98 849.65 138.91C853.84 137.84 857.91 134.19 861.85 127.94L861.86 127.97Z" fill="#6F3797"/>
<path d="M277.14 65.31C277.14 63.2 277.85 61.37 279.25 59.82C280.38 58.41 282.35 57.18 285.16 56.1301C287.97 55.07 292.06 54.62 297.4 54.76C302.33 55.18 305.84 56.2401 307.95 57.93C310.06 59.62 311.47 61.94 312.17 64.89C313.01 68.97 313.68 73.83 314.18 79.45C314.67 85.07 315.06 91.06 315.34 97.39C315.63 103.72 315.76 110.19 315.76 116.81C315.76 123.43 315.62 129.71 315.34 135.7C315.06 141.68 314.71 147.13 314.28 152.06C313.86 156.98 313.3 160.92 312.59 163.88C311.75 165.85 310.13 167.47 307.74 168.73C305.35 169.99 302.65 170.87 299.62 171.37C296.6 171.86 293.43 172.07 290.12 172C286.82 171.93 283.79 171.61 281.05 171.05C278.31 170.49 276.16 169.75 274.61 168.84C273.06 167.92 272.43 166.83 272.71 165.57C272.85 165.15 272.99 163.42 273.13 160.4C273.27 157.37 273.44 153.47 273.66 148.68C273.87 143.9 274.12 138.52 274.4 132.54C274.69 126.56 274.97 120.47 275.24 114.28C275.81 99.79 276.44 83.47 277.14 65.32V65.31ZM278.41 27.95C278.41 23.87 280.07 20.28 283.37 17.19C286.67 14.1 290.65 12.55 295.29 12.55C299.93 12.55 303.91 14.1 307.21 17.19C310.52 20.28 312.17 23.87 312.17 27.95C312.17 32.4501 310.52 36.14 307.21 39.03C303.91 41.91 299.93 43.3601 295.29 43.3601C290.65 43.3601 286.67 41.92 283.37 39.03C280.07 36.15 278.41 32.4501 278.41 27.95Z" fill="#6F3797"/>
<path d="M551.22 35.63L576.29 105.98C578.95 113.46 589.51 113.51 592.25 106.06L619.64 31.61C622.42 23.86 625.15 18.37 627.84 15.14C630.52 11.91 634.6 10.3 640.06 10.3C645.23 10.3 649.62 12.04 653.25 15.52C656.88 19 658.69 23.02 658.69 27.59C658.69 29.38 658.37 31.47 657.72 33.85C657.07 36.24 656.33 38.47 655.48 40.56C654.63 42.65 653.67 45.03 652.57 47.72L613.51 144.61C612.42 147.39 611 150.92 609.26 155.19C607.52 159.46 605.58 163.12 603.45 166.15C601.31 169.18 598.68 171.54 595.55 173.23C592.42 174.92 588.62 175.76 584.15 175.76C578.39 175.76 573.79 174.44 570.36 171.81C566.93 169.18 564.4 166.29 562.76 163.16C561.12 160.03 558.36 153.84 554.49 144.6L515.73 48.75C514.84 46.36 513.92 43.98 512.97 41.59C512.02 39.2 511.23 36.77 510.59 34.29C509.94 31.81 509.62 29.67 509.62 27.88C509.62 25.1 510.46 22.34 512.15 19.61C513.84 16.88 516.18 14.64 519.16 12.9C522.14 11.16 525.37 10.29 528.85 10.29C535.61 10.29 540.25 12.23 542.79 16.1C545.32 19.98 548.13 26.49 551.21 35.63H551.22Z" fill="#6F3797"/>
<path d="M257.34 161.22C257.34 164.25 256.46 167.27 254.68 170.24C252.9 173.2 250.44 175.65 247.31 177.53C244.18 179.43 229.77 184.38 226.11 184.38C218.99 184.38 214.11 182.27 211.44 178.06C208.78 173.84 205.83 166.74 202.58 156.79L170.34 63.2099C169.39 60.4299 166.37 60.4099 165.39 63.1799L148.76 109.97L141.33 130.86L139.5 136C137.75 140.9 133.06 144.14 127.86 144C127.66 144 127.46 143.98 127.26 143.97C122.51 143.72 118.47 140.4 116.92 135.9L115.19 130.86L108.46 111.33L95.43 73.4899L91.89 63.2099C90.92 60.4299 52.1 161.17 52.1 161.17C50.85 164.78 49.61 167.94 48.39 170.64C46.74 174.27 45.1 177.1 43.48 179.11C40.66 182.63 36.36 184.38 30.61 184.38C25.18 184.38 20.54 182.5 16.72 178.71C12.94 174.95 0.3 166.73 0.01 161.73C0 161.67 0 161.61 0 161.55C0 159.61 0.34 157.33 1.02 154.73C1.7 152.14 2.47 149.69 3.36 147.42C4.26 145.15 5.28 142.56 6.43 139.63L41.36 49.9599L42.04 48.2299L43.56 44.3299L44.49 41.9299L45.65 38.9499L47.54 34.0999C47.72 33.6299 47.91 33.1299 48.1 32.6199C48.34 32.0099 48.58 31.3699 48.84 30.7099C49.75 28.3499 50.8 25.6399 52 22.5699C53.84 17.9199 55.87 13.9499 58.12 10.6499C60.38 7.33991 63.15 4.76991 66.45 2.92991C69.74 1.07991 73.74 0.159912 78.45 0.159912C84.51 0.159912 100.35 5.59991 103.97 8.46991C104.99 9.27991 105.93 10.1199 106.8 10.9699C109 13.1399 110.72 15.4499 111.97 17.8799C112.5 18.9199 113.14 20.2899 113.89 21.9699C114.52 23.3599 115.22 24.9799 116 26.7999C116 26.7999 116.01 26.8199 116.01 26.8299C117.34 29.9599 118.89 33.7199 120.66 38.0999L121.58 40.4399L126.42 52.7999C127.43 55.4099 130.25 55.4099 131.25 52.7999L136.99 38.0999C138.14 35.0599 139.63 31.2299 141.47 26.5699C143.29 21.9199 145.33 17.9499 147.58 14.6499C149.83 11.3399 152.6 7.76991 155.91 5.92991C159.19 4.07991 166.2 1.15991 170.89 1.15991C176.98 1.15991 187.81 2.59991 191.42 5.46991C195.01 8.33991 199.68 12.4899 201.42 15.8799C203.14 19.2899 206.04 24.0499 210.12 34.0999L250.93 138.51C251.86 141.1 252.83 143.68 253.82 146.3C254.82 148.89 255.67 151.55 256.34 154.25C257.01 156.94 257.34 159.28 257.34 161.22Z" fill="#6F3797"/>
<path d="M708.79 66.59C710.09 65.34 711.39 64.3 712.68 63.44C712.96 63.26 713.23 63.08 713.51 62.91C715.77 61.49 717.86 60.49 719.8 59.92C721.33 59.46 722.76 59.26 724.09 59.32C724.31 59.33 724.53 59.35 724.74 59.37C727.27 59.61 729.16 60.53 730.41 62.14C730.43 62.15 730.44 62.17 730.45 62.18C730.62 62.39 730.78 62.61 730.92 62.85C731.28 63.45 731.54 64.06 731.69 64.69C732.1 66.35 731.76 68.09 730.68 69.91C730.45 70.29 730.18 70.67 729.87 71.04C729.61 71.36 729.31 71.67 728.99 71.98C728.22 72.72 727.28 73.44 726.16 74.12C724.73 75 723.02 75.83 721.03 76.62C720.63 76.78 720.21 76.93 719.77 77.08C719.48 77.18 719.18 77.27 718.88 77.35C717.55 77.76 716.08 78.09 714.48 78.35C710.31 79.05 705.24 79.29 699.26 79.09C700.65 76.8 702.03 74.72 703.39 72.86C705.2 70.39 707 68.3 708.79 66.59ZM709.32 113.77C708.18 113.77 707 113.76 705.79 113.73C705.19 113.72 704.59 113.71 703.97 113.69C703.97 119.03 705.18 122.95 707.62 125.46C708.36 126.23 709.14 126.88 709.97 127.41C710.16 127.53 710.35 127.65 710.55 127.76C712.27 128.74 714.15 129.23 716.2 129.23C719.5 129.23 722.92 128.09 726.45 125.81C729.98 123.54 732.92 120.28 735.27 116.05C737.78 113.54 740.8 112.16 744.33 111.93C747.87 111.69 751.2 112.36 754.34 113.93C757.47 115.5 760.07 117.81 762.1 120.87C764.14 123.93 765.01 127.34 764.7 131.11C763.28 136.92 760.49 141.94 756.34 146.18C752.18 150.41 747.31 153.83 741.75 156.41C736.17 159 730.21 160.69 723.85 161.47C717.5 162.26 711.5 162.1 705.85 161.01C703.06 160.39 700.32 159.58 697.62 158.59C694.86 157.59 692.15 156.39 689.49 155C684.23 152.26 679.37 148.88 674.9 144.88C671.68 142.01 668.73 138.83 666.06 135.35C665 133.98 663.98 132.57 663.01 131.11C659.56 125.93 656.89 120.13 655.01 113.69C652.18 103.65 651.6 93.37 653.25 82.86C654.89 72.35 658.46 62.7 663.95 53.91C669.44 45.12 676.7 37.83 685.72 32.02C694.74 26.21 705.15 23.07 716.91 22.6C722.71 22.45 728.6 23.07 734.57 24.48C740.53 25.9 746.02 28.06 751.04 30.96C756.07 33.86 760.42 37.67 764.1 42.37C767.79 47.08 770.35 52.65 771.75 59.08C773.01 65.52 772.74 71.64 770.93 77.45C769.12 83.25 766.23 88.43 762.23 92.98C758.22 97.53 753.44 101.42 747.87 104.63C742.29 107.85 736.37 110.16 730.1 111.58C726.33 112.51 722.4 113.14 718.32 113.46C718.1 113.48 717.87 113.49 717.64 113.51L709.32 113.77Z" fill="#6F3797"/>
<path d="M737.89 86.82C743.89 79.46 747.51 72.52 748.74 65.99C749.96 59.45 749.59 53.76 747.62 48.92C745.65 44.07 742.45 40.31 738.04 37.64C733.62 34.96 728.65 33.8 723.12 34.13C717.58 34.47 711.8 36.45 705.78 40.06C699.75 43.68 694.21 49.47 689.16 57.42C684.58 64.62 681.97 71.14 681.32 76.97C680.66 82.81 681.34 87.82 683.33 92.01C685.32 96.2 688.4 99.42 692.55 101.66C696.71 103.9 701.37 104.93 706.53 104.76C711.69 104.58 717 103.04 722.45 100.12C727.89 97.2 733.05 92.76 737.9 86.8L737.89 86.82Z" fill="#6F3797"/>
<path d="M383.85 171.45C383.33 168.85 382.84 165.04 382.37 160C382.32 159.37 382.26 158.73 382.2 158.06C382.13 157.24 382.06 156.4 381.99 155.52C381.41 148.23 380.83 139.81 380.25 130.27C379.7 121.45 379.24 112.09 378.86 102.2C378.83 101.54 378.8 100.88 378.78 100.22C378.77 100.08 378.77 99.93 378.76 99.78C378.34 89 378.05 78.43 377.89 68.06C377.72 57.69 377.72 48.06 377.89 39.19C378.05 30.32 378.39 23.06 378.88 17.42C379.54 14.27 379.21 11.61 377.89 9.45C376.55 7.3 374.78 5.51 372.53 4.1C370.3 2.7 367.72 1.7 364.82 1.11C361.91 0.53 359.13 0.16 356.49 0C351.84 0 348.27 0.78 345.79 2.36C343.29 3.94 341.51 5.72 340.43 7.71C339.35 9.7 338.69 11.65 338.45 13.56C338.2 15.47 337.99 16.76 337.82 17.42C336.82 22.06 335.87 28.33 334.96 36.21C334.05 44.09 333.25 52.75 332.59 62.21C331.93 71.66 331.48 81.66 331.23 92.19C330.98 102.73 331.02 113.02 331.35 123.05V123.14C331.37 123.8 331.4 124.46 331.43 125.11C331.77 134.39 332.41 143.16 333.34 151.42C334.34 160.3 335.74 167.8 337.57 173.94C338.21 175.67 339.11 177.18 340.27 178.46C340.7 178.94 341.17 179.38 341.68 179.8C342.29 180.3 342.95 180.75 343.67 181.16C346.57 182.82 349.81 183.85 353.37 184.26C356.94 184.68 360.63 184.64 364.45 184.14C368.26 183.64 371.7 182.78 374.78 181.53C377.84 180.28 380.25 178.79 381.99 177.05C383.73 175.31 384.35 173.44 383.85 171.45Z" fill="#6F3797"/>
<path d="M717.64 113.51L729.28 90.06C734.87 88.85 741.29 86.27 743.91 80.77C745.99 76.43 744.72 70.1701 740.07 67.7601C739.77 67.5901 738.66 67.1801 737.54 66.8901C736.39 66.6 735.22 66.45 734.92 66.88C735.5 66.05 736.03 65.1901 736.51 64.2901C738.59 60.3601 739.5 55.7801 737.35 51.4701C734.91 46.5801 728.76 43.5501 723.81 46.2001C722.87 46.7101 719.13 49.5501 719.43 50.9701C718.32 45.8101 712.81 38.2001 706.66 40.9001C703.22 42.4001 699.26 51.0301 703 54.0201C696.61 48.9101 690.25 52.26 690.25 52.26C676.36 61.2901 692.35 79.59 692.35 79.59L675.83 112.6L666.22 131.81C668.59 135.5 671.26 138.92 674.23 142.05C678.35 146.41 682.91 150.18 687.92 153.35C690.46 154.96 693.06 156.39 695.72 157.61L702.53 143.91L710.55 127.76C710.35 127.65 710.16 127.53 709.97 127.41C709.14 126.88 708.36 126.23 707.62 125.46C705.18 122.95 703.97 119.03 703.97 113.69C704.59 113.71 705.19 113.72 705.79 113.73C705.79 113.62 705.8 113.51 705.81 113.4C707.01 113.54 708.19 113.66 709.32 113.77L717.64 113.51Z" fill="#FEFFFF"/>
<path d="M709.32 113.77C708.19 113.66 708.2 113.72 706.76 113.64C706.75 113.75 705.79 113.62 705.79 113.73C705.19 113.72 704.59 113.71 703.97 113.69C703.97 119.03 705.18 122.95 707.62 125.46C708.36 126.23 709.14 126.88 709.97 127.41C710.16 127.53 710.35 127.65 710.55 127.76L702.53 143.91L695.72 157.61C693.06 156.39 690.11 155.85 687.55 154.27C681.9 150.78 677.97 147.8 673.51 143.29C670.39 140.14 666.43 136.34 664.06 132.65L675.83 112.6L692.35 79.59C692.35 79.59 676.36 61.2901 690.25 52.26C690.25 52.26 696.61 48.9101 703 54.0201C699.26 51.0301 703.22 42.4001 706.66 40.9001C712.81 38.2001 718.32 45.8101 719.43 50.9701C719.13 49.5501 722.87 46.7101 723.81 46.2001C728.76 43.5501 734.91 46.5801 737.35 51.4701C739.5 55.7801 738.59 60.3601 736.51 64.2901C736.03 65.1901 735.5 66.05 734.92 66.88C735.22 66.45 736.39 66.6 737.54 66.8901C738.66 67.1801 739.77 67.5901 740.07 67.7601C744.72 70.1701 745.99 76.43 743.91 80.77C741.29 86.27 734.87 88.85 729.28 90.06L717.64 113.51L709.32 113.77Z" fill="#FEFFFF"/>
<path d="M701.549 97.08C701.309 96.56 701.419 95.94 701.849 95.56C702.379 95.09 703.209 95.16 703.689 95.71C703.939 95.99 709.669 102.29 717.629 97.86C718.249 97.51 719.049 97.75 719.419 98.39C719.789 99.03 719.569 99.83 718.949 100.18C709.129 105.64 701.839 97.5 701.759 97.42C701.669 97.32 701.599 97.2 701.539 97.08H701.549Z" fill="#6F3797"/>
<path d="M720.479 85.9703C719.339 88.7603 716.089 90.0503 713.329 88.7703C712.759 88.5103 712.259 88.1503 711.829 87.7303C710.729 86.6303 709.439 85.7203 707.989 85.1303L707.599 84.9703C706.109 84.3603 704.519 84.0603 702.909 84.0703C702.149 84.0703 701.379 83.9203 700.629 83.5703C698.159 82.4203 696.959 79.5403 697.869 76.9803C698.479 75.2903 699.829 74.1103 701.419 73.6603C703.699 73.0103 705.679 71.6003 707.119 69.7103C708.789 67.5203 711.419 65.5803 715.079 67.0803C718.699 68.5703 719.199 71.8103 718.859 74.5503C718.559 76.9203 719.059 79.3203 720.209 81.4103C720.959 82.7703 721.099 84.4403 720.469 85.9903L720.479 85.9703Z" fill="#6F3797"/>
<path d="M702.439 63.5401C703.379 67.2201 701.709 70.8301 698.699 71.6001C695.689 72.3701 692.489 70.0101 691.539 66.3301C690.599 62.6501 692.269 59.0401 695.279 58.2701C698.289 57.5001 701.489 59.8601 702.439 63.5401Z" fill="#6F3797"/>
<path d="M716.19 53.6002C716.7 57.6402 714.71 61.2302 711.75 61.6002C708.79 61.9802 705.97 59.0002 705.46 54.9602C704.95 50.9202 706.94 47.3302 709.9 46.9602C712.86 46.5802 715.68 49.5602 716.19 53.6002Z" fill="#6F3797"/>
<path d="M736.639 80.5702C735.219 84.0202 731.509 85.7702 728.339 84.4602C725.169 83.1602 723.749 79.3002 725.159 75.8502C726.579 72.4002 730.289 70.6502 733.459 71.9602C736.629 73.2602 738.049 77.1202 736.639 80.5702Z" fill="#6F3797"/>
<path d="M730.589 61.86C728.089 66.03 723.989 68.17 721.429 66.64C718.869 65.11 718.809 60.48 721.309 56.31C723.809 52.14 727.909 50 730.469 51.53C733.029 53.06 733.089 57.69 730.589 61.86Z" fill="#6F3797"/>
<path d="M435.71 77.4799C434.69 77.7799 433.63 78.1099 432.71 78.6499C431.23 79.5399 429.68 79.7399 428 79.6899C426.17 79.6299 424.28 79.5399 422.49 79.8399C418.16 80.5399 415.81 84.8699 417.54 88.9099C418.08 90.1699 418.88 91.3899 419.82 92.3899C422.86 95.6599 426.53 97.9699 430.95 98.9199C431.66 99.0699 432.3 99.3199 432.87 99.6499C433.03 98.6199 433.22 97.5699 433.44 96.4999C434.38 91.2799 436.14 86.9399 438.66 83.4199C440.43 80.9899 442.41 78.9899 444.56 77.4199C441.8 76.4599 438.83 76.5599 435.71 77.4799ZM485.48 86.6699C484.26 86.5599 483.04 86.3099 481.83 86.0599C481.51 85.9999 481.15 85.8399 480.94 85.5999C478.68 83.1299 475.92 81.4499 472.84 80.2399C472.76 80.1999 472.69 80.1499 472.44 80.0199C473.32 79.4799 474.11 79.0199 474.88 78.4999C475.93 77.7999 476.37 76.5899 476.07 75.4299C475.75 74.2399 474.77 73.3399 473.55 73.3399C472.89 73.3399 472.16 73.5399 471.59 73.8599C470.19 74.6599 468.83 75.5199 467.53 76.4299C470.21 78.3599 472.36 81.0699 474.09 84.5899C475.85 88.2799 476.67 92.9199 476.55 98.5499C476.5 99.5899 476.43 100.62 476.35 101.61C476.77 101.46 477.24 101.38 477.78 101.4C481.83 101.53 484.97 99.6199 487.23 96.3199C488.03 95.1599 488.69 93.8699 489.22 92.5599C490.35 89.7299 488.51 86.9399 485.48 86.6699ZM485.48 86.6699C484.26 86.5599 483.04 86.3099 481.83 86.0599C481.51 85.9999 481.15 85.8399 480.94 85.5999C478.68 83.1299 475.92 81.4499 472.84 80.2399C472.76 80.1999 472.69 80.1499 472.44 80.0199C473.32 79.4799 474.11 79.0199 474.88 78.4999C475.93 77.7999 476.37 76.5899 476.07 75.4299C475.75 74.2399 474.77 73.3399 473.55 73.3399C472.89 73.3399 472.16 73.5399 471.59 73.8599C470.19 74.6599 468.83 75.5199 467.53 76.4299C470.21 78.3599 472.36 81.0699 474.09 84.5899C475.85 88.2799 476.67 92.9199 476.55 98.5499C476.5 99.5899 476.43 100.62 476.35 101.61C476.77 101.46 477.24 101.38 477.78 101.4C481.83 101.53 484.97 99.6199 487.23 96.3199C488.03 95.1599 488.69 93.8699 489.22 92.5599C490.35 89.7299 488.51 86.9399 485.48 86.6699ZM435.71 77.4799C434.69 77.7799 433.63 78.1099 432.71 78.6499C431.23 79.5399 429.68 79.7399 428 79.6899C426.17 79.6299 424.28 79.5399 422.49 79.8399C418.16 80.5399 415.81 84.8699 417.54 88.9099C418.08 90.1699 418.88 91.3899 419.82 92.3899C422.86 95.6599 426.53 97.9699 430.95 98.9199C431.66 99.0699 432.3 99.3199 432.87 99.6499C433.03 98.6199 433.22 97.5699 433.44 96.4999C434.38 91.2799 436.14 86.9399 438.66 83.4199C440.43 80.9899 442.41 78.9899 444.56 77.4199C441.8 76.4599 438.83 76.5599 435.71 77.4799ZM513.5 89.3999C512.8 80.9499 510.98 73.1499 507.93 65.8799C504.65 58.0799 500.19 51.7399 494.5 46.8799C488.81 42.0699 482.59 38.5499 475.85 36.4399C469.05 34.3199 462.01 33.4999 454.79 33.9699C447.52 34.4399 440.54 36.1399 433.85 39.0199C427.11 41.8899 421.01 45.8799 415.55 50.9799C410.1 56.1399 405.82 62.3599 402.83 69.5699C399.95 76.4399 397.96 83.7099 396.9 91.3299C395.79 99.0199 395.55 106.7 396.26 114.33C396.96 122.01 398.54 129.34 401.01 136.44C403.47 143.48 406.81 149.81 411.04 155.38C415.26 161.01 420.48 165.59 426.52 169.17C432.62 172.75 439.6 174.86 447.4 175.5C456.26 176.32 464.35 175.21 471.63 172.04C478.84 168.87 485.29 164.42 490.81 158.67C496.38 152.92 500.89 146.23 504.47 138.55C508.05 130.93 510.57 122.89 512.16 114.56C513.74 106.23 514.21 97.8399 513.5 89.3999ZM502.63 93.7099C501.76 99.3099 500.33 104.48 498.35 109.21C490.72 107.63 480.9 105.47 476.04 104.64C475.3 110.67 473.89 115.8 471.8 120.02C469.1 125.53 465.88 129.58 462.18 132.1C458.49 134.62 454.56 135.74 450.45 135.38C448 135.17 445.76 134.48 443.7 133.3C444.53 137 445.35 140.77 446.1 144.32C444.91 144.35 443.74 144.34 442.59 144.29C435.27 133.45 424.32 112.79 413.77 103.95C404.54 94.6799 403.55 80.2899 411.38 70.0999C420.89 57.7499 438.68 56.5399 449.93 67.4899C451.55 69.0799 453.14 70.7299 454.8 72.4199C455.13 72.1199 455.37 71.8899 455.62 71.6499C457.79 69.5699 459.82 67.3099 462.17 65.4399C477.35 53.3999 500.18 62.3899 503.22 81.5199C503.33 82.1599 503.44 82.7899 503.57 83.4099C503.5 86.6699 503.19 90.0899 502.63 93.7099ZM485.48 86.6699C484.26 86.5599 483.04 86.3099 481.83 86.0599C481.51 85.9999 481.15 85.8399 480.94 85.5999C478.68 83.1299 475.92 81.4499 472.84 80.2399C472.76 80.1999 472.69 80.1499 472.44 80.0199C473.32 79.4799 474.11 79.0199 474.88 78.4999C475.93 77.7999 476.37 76.5899 476.07 75.4299C475.75 74.2399 474.77 73.3399 473.55 73.3399C472.89 73.3399 472.16 73.5399 471.59 73.8599C470.19 74.6599 468.83 75.5199 467.53 76.4299C470.21 78.3599 472.36 81.0699 474.09 84.5899C475.85 88.2799 476.67 92.9199 476.55 98.5499C476.5 99.5899 476.43 100.62 476.35 101.61C476.77 101.46 477.24 101.38 477.78 101.4C481.83 101.53 484.97 99.6199 487.23 96.3199C488.03 95.1599 488.69 93.8699 489.22 92.5599C490.35 89.7299 488.51 86.9399 485.48 86.6699ZM435.71 77.4799C434.69 77.7799 433.63 78.1099 432.71 78.6499C431.23 79.5399 429.68 79.7399 428 79.6899C426.17 79.6299 424.28 79.5399 422.49 79.8399C418.16 80.5399 415.81 84.8699 417.54 88.9099C418.08 90.1699 418.88 91.3899 419.82 92.3899C422.86 95.6599 426.53 97.9699 430.95 98.9199C431.66 99.0699 432.3 99.3199 432.87 99.6499C433.03 98.6199 433.22 97.5699 433.44 96.4999C434.38 91.2799 436.14 86.9399 438.66 83.4199C440.43 80.9899 442.41 78.9899 444.56 77.4199C441.8 76.4599 438.83 76.5599 435.71 77.4799Z" fill="#6F3797"/>
<path d="M476.04 104.64C476.16 103.65 476.27 102.65 476.35 101.61C476.77 101.46 477.24 101.38 477.78 101.4C481.83 101.53 484.97 99.6198 487.23 96.3198C488.03 95.1598 488.69 93.8698 489.22 92.5598C490.35 89.7298 488.51 86.9398 485.48 86.6698C484.26 86.5598 483.04 86.3098 481.83 86.0598C481.51 85.9998 481.15 85.8398 480.94 85.5998C478.68 83.1298 475.92 81.4498 472.84 80.2398C472.76 80.1998 472.69 80.1498 472.44 80.0198C473.32 79.4798 474.11 79.0198 474.88 78.4998C475.93 77.7998 476.37 76.5898 476.07 75.4298C475.75 74.2398 474.77 73.3398 473.55 73.3398C472.89 73.3398 472.16 73.5398 471.59 73.8598C470.19 74.6598 468.83 75.5198 467.53 76.4298C462.7 79.7998 458.56 83.9198 455.24 88.9398C455.14 89.0898 455.03 89.2298 454.82 89.4898C454.42 88.5998 454.04 87.8498 453.74 87.0598C452.65 84.3398 451.13 81.9099 448.91 79.9799C447.53 78.7899 446.08 77.9398 444.56 77.4198C441.8 76.4598 438.83 76.5599 435.71 77.4799C434.69 77.7799 433.63 78.1098 432.71 78.6498C431.23 79.5398 429.68 79.7399 428 79.6898C426.17 79.6298 424.28 79.5398 422.49 79.8398C418.16 80.5398 415.81 84.8699 417.54 88.9099C418.08 90.1699 418.88 91.3898 419.82 92.3898C422.86 95.6598 426.53 97.9698 430.95 98.9198C431.66 99.0698 432.3 99.3198 432.87 99.6498C433.99 100.3 434.87 101.26 435.6 102.41C437.23 104.98 438.05 107.83 438.63 110.76C439.19 113.63 441.44 123.19 443.7 133.3C444.53 137 445.35 140.77 446.1 144.32C446.69 144.32 447.28 144.29 447.87 144.26C456.39 143.79 464.49 141.56 472.21 137.55C479.9 133.56 486.51 127.86 491.98 120.48C494.53 117.05 496.64 113.29 498.35 109.21C490.72 107.63 480.9 105.47 476.04 104.64Z" fill="#FEFFFF"/>
<path d="M476.35 101.61C476.27 102.65 476.16 103.65 476.04 104.64C475.42 104.54 474.88 104.45 474.44 104.39C474.07 104.34 473.7 104.27 473.09 104.17C474.21 103.18 475.04 102.06 476.35 101.61Z" fill="#6F3797"/>
<path d="M24.6201 92.93L41.3601 49.96C42.3901 49.39 43.3601 48.68 44.2701 47.86C43.5301 48.05 42.7901 48.17 42.0401 48.23C40.1901 48.35 38.2501 48.03 35.9401 47.18C32.7001 45.98 31.0501 44.05 26.9001 44.43C26.9001 44.43 30.8301 41.86 36.1001 43.73C38.8101 44.69 41.0501 44.89 43.5601 44.33C45.9401 43.8 48.5801 42.58 52.1001 40.67C49.3701 41.82 46.7801 42.22 44.4901 41.93C41.4701 41.55 38.9501 39.98 37.2601 37.29C38.7001 38.28 42.0801 39.23 45.6501 38.95C47.5201 38.81 49.4501 38.32 51.1601 37.33C56.1401 34.44 57.9801 31.5 61.7901 31.26C60.8201 30.68 57.4501 30.99 53.2601 32.1C51.1301 32.66 49.4401 32.89 48.1001 32.62C46.8001 32.37 45.8301 31.64 45.1201 30.31C46.0201 31.03 47.3301 31.07 48.8401 30.71C52.3001 29.91 56.8301 27.07 60.0201 25.72C64.5901 23.78 67.4601 26.65 71.6701 24.55C71.5101 24.55 69.0101 24.5 65.2601 21.75C61.3901 18.91 57.1001 21 52.6901 21.13C57.4201 17.48 63.5601 17.56 67.1501 18.12C70.7401 18.68 71.1701 20.56 78.3001 20.11C77.8301 20.11 74.3901 19.07 71.6801 17.28C68.9301 15.46 65.5401 13.82 59.9201 15.16C62.5701 12.37 69.5001 11.87 73.1401 13.86C76.6601 15.77 80.1901 17.98 85.8001 15.96C81.7501 17.25 76.2801 14.15 73.9601 9.35999C74.2601 9.66999 80.1001 15.53 87.4001 13.25C94.8901 10.91 95.6501 8.38999 102.98 9.49999C104.42 9.71999 105.68 10.28 106.77 11.02C106.78 11 106.79 10.99 106.8 10.97C109.87 6.04999 111.4 3.73999 111.4 3.73999C111.4 3.73999 112.95 7.66999 110.67 15.2C110.79 15.4 110.91 15.59 111.02 15.78C112.8 13.56 116.63 8.79999 117.25 7.97999C117.46 12.25 114.92 19.29 113.89 21.97C113.63 22.65 113.46 23.05 113.46 23.05C114.37 24.39 115.22 25.64 116 26.8C116 26.8 116.01 26.82 116.01 26.83C119.69 32.35 121.79 36.1 121.58 39.86C121.57 40.05 121.57 40.24 121.58 40.44C121.74 45.01 126.36 51.84 128.35 57.35C130.43 63.1 135.53 74.71 136.48 77.13C137.43 79.55 134.85 87.07 129.59 87.66C128.18 88.22 128.06 91.47 126.46 91.39C124.86 91.31 123 88.82 123 88.82C122.9 92.39 121.56 95.11 119.6 93.64C117.64 92.16 117.69 86.74 112.68 83.8C107.99 81.03 102.14 82.25 95.4301 73.49L91.8901 63.21C91.2001 61.24 71.4301 111.45 60.0301 140.73" fill="white"/>
<path d="M238.21 177.63C237.39 177.63 236.63 177.09 236.38 176.27C236.07 175.26 236.64 174.18 237.65 173.87C238.16 173.71 249.83 169.9 248.65 156.36C248.56 155.3 249.34 154.37 250.4 154.28C251.46 154.18 252.39 154.97 252.48 156.03C253.93 172.73 238.92 177.5 238.77 177.55C238.58 177.61 238.39 177.64 238.2 177.63H238.21Z" fill="white"/>
<path d="M306.77 65.1599C306.77 65.1599 314.41 110.68 309.6 160.12" stroke="white" stroke-width="4" stroke-miterlimit="10" stroke-linecap="round"/>
<path d="M535.89 82.8899C535.89 82.8899 542.15 105.25 567.49 161.15" stroke="white" stroke-width="6" stroke-miterlimit="10" stroke-linecap="round"/>
<path d="M819.43 174.3C818.17 173.01 817.69 171.14 818.38 169.67C819.22 167.87 821.51 167.37 823.48 168.56C824.48 169.15 847.52 182.48 863.36 163.09C864.6 161.58 867.03 161.59 868.78 163.13C870.55 164.66 870.96 167.14 869.72 168.65C850.18 192.56 820.72 175.26 820.42 175.08C820.05 174.86 819.72 174.59 819.42 174.29L819.43 174.3Z" fill="white"/>
</g>
<defs>
<clipPath id="clip0_69_1854">
<rect width="891.69" height="184.55" fill="white"/>
</clipPath>
</defs>
</svg>
